<?xml version="1.0" encoding="utf-8"?>
<!-- Generator: Adobe Illustrator 24.0.2, SVG Export Plug-In . SVG Version: 6.00 Build 0)  -->
<svg version="1.1" id="Layer_1" xmlns="http://www.w3.org/2000/svg" xmlns:xlink="http://www.w3.org/1999/xlink" x="0px" y="0px"
	 viewBox="0 0 586.4 115.7" style="enable-background:new 0 0 586.4 115.7;" xml:space="preserve">
<style type="text/css">
	.st0{fill:#FFFFFF;stroke:#050505;stroke-miterlimit:10;}
	.st1{fill:#FFFFFF;}
	.st2{fill:#1B1B1B;}
	.st3{fill:#F4F4F4;}
	.st4{fill:none;}
</style>
<g>
	<g>
		<path class="st0" d="M125.2,219.3h-21.5c6.8-9.1,10.5-20.1,10.5-31.6c0-29.1-23.6-52.7-52.7-52.7c-29.2,0-52.8,23.5-52.8,52.7
			c0,29.1,23.6,52.7,52.7,52.7H125c1.9,0,3.5-1.6,3.5-3.5v-14.1C128.7,220.9,127.2,219.3,125.2,219.3z M15.8,187.7
			c0-25.2,20.5-45.7,45.7-45.7s45.7,20.5,45.7,45.7s-20.5,45.7-45.7,45.7S15.8,212.9,15.8,187.7z M121.7,233.4H87.8
			c3.4-2,6.6-4.3,9.5-7h24.4V233.4L121.7,233.4z"/>
		<path class="st0" d="M95.3,197.9l-19.5-8.1c-1.8-0.7-3.8,0.1-4.6,1.9c-1.1,2.6-3.2,4.7-5.7,5.7c-1.8,0.7-2.6,2.8-1.9,4.6l8.1,19.5
			c0.4,0.9,1,1.6,1.9,1.9c0.8,0.3,1.8,0.4,2.7,0c9.4-3.9,17-11.5,20.9-20.9c0.4-0.9,0.4-1.8,0-2.7C96.8,199,96.2,198.3,95.3,197.9
			L95.3,197.9z M76.7,215.4l-5.4-13.1c1.9-1.3,3.5-2.9,4.7-4.7L89,203C86.3,208.2,81.8,212.5,76.7,215.4L76.7,215.4z"/>
		<path class="st0" d="M57.3,197.5c-2.6-1.1-4.7-3.2-5.7-5.7c-0.7-1.8-2.8-2.6-4.6-1.9L27.6,198c-0.9,0.4-1.5,1-1.9,1.9
			c-0.4,0.9-0.4,1.8,0,2.7c3.9,9.4,11.5,17,20.9,20.9c0.9,0.4,1.8,0.4,2.7,0c0.9-0.4,1.5-1,1.9-1.9l8.1-19.5
			C60,200.3,59.1,198.2,57.3,197.5L57.3,197.5z M46.1,215.4c-5.2-2.9-9.5-7.2-12.4-12.4l13.1-5.5c1.3,1.9,2.9,3.5,4.7,4.7
			L46.1,215.4z"/>
		<path class="st0" d="M27.6,177.5l19.5,8.1c1.8,0.8,3.8-0.1,4.6-1.9c1.1-2.6,3.2-4.7,5.7-5.7c1.8-0.7,2.6-2.8,1.9-4.6l-8.1-19.5
			c-0.4-0.9-1-1.5-1.9-1.9c-0.9-0.4-1.8-0.4-2.7,0c-9.4,3.9-17,11.5-20.9,20.9c-0.4,0.9-0.4,1.8,0,2.7
			C26.1,176.5,26.8,177.1,27.6,177.5L27.6,177.5z M46.1,160l5.4,13.1c-1.9,1.3-3.5,2.9-4.7,4.7l-13.1-5.4
			C36.6,167.2,40.9,162.9,46.1,160z"/>
		<circle class="st0" cx="61.4" cy="187.7" r="3.5"/>
		<path class="st0" d="M65.4,178c2.6,1.1,4.7,3.2,5.7,5.7c0.7,1.8,2.8,2.7,4.6,1.9l19.5-8.1c0.9-0.4,1.6-1,1.9-1.9
			c0.4-0.9,0.4-1.8,0-2.7c-3.9-9.4-11.5-17-20.9-20.9c-0.9-0.4-1.8-0.4-2.7,0c-0.9,0.4-1.5,1-1.9,1.9l-8.1,19.5
			C62.8,175.2,63.6,177.2,65.4,178L65.4,178z M76.7,160c5.2,2.9,9.5,7.2,12.4,12.4L76,177.8c-1.3-1.9-2.9-3.5-4.7-4.7L76.7,160z"/>
	</g>
</g>
<g>
	<path class="st1" d="M153.8,81.2h-14.8v10.2h13.6v7.6h-13.6v16.3h-9.5V73.5h24.2V81.2z"/>
	<path class="st1" d="M170.1,115.4h-9.5V73.5h9.5V115.4z"/>
	<path class="st1" d="M204.6,115.4h-25V73.5h9.5v34.2h15.5V115.4L204.6,115.4z"/>
	<path class="st1" d="M258,115.4h-9.3v-25c0-2.7,0.1-5.7,0.3-8.9h-0.3c-0.4,2.6-1,4.4-1.3,5.6l-9.8,28.4h-7.8l-10-28.2
		c-0.3-0.8-0.8-2.7-1.3-5.8h-0.2c0.2,4.1,0.4,7.8,0.4,10.9v23.2h-8.5v-42H224l8.5,24.8c0.6,1.9,1.2,4,1.5,6h0.2
		c0.5-2.4,1.1-4.3,1.7-6l8.5-24.8H258V115.4L258,115.4z"/>
	<path class="st1" d="M282,112.9v-9.4c1.7,1.4,3.6,2.5,5.5,3.2c1.9,0.8,4,1.1,6,1.1c1.2,0,2.3-0.1,3.1-0.3c0.9-0.2,1.6-0.5,2.3-0.9
		c0.5-0.3,1.1-0.9,1.3-1.4c0.3-0.5,0.4-1.1,0.4-1.7c0-0.9-0.2-1.5-0.6-2.2c-0.4-0.6-1.1-1.3-1.9-1.8c-0.9-0.5-1.7-1.1-2.9-1.6
		c-1.2-0.5-2.3-1-3.6-1.5c-3.2-1.4-5.7-3-7.3-5c-1.6-1.9-2.4-4.3-2.4-7.1c0-2.2,0.4-4.1,1.3-5.6s2-2.9,3.6-3.9s3.2-1.7,5.3-2.3
		c1.9-0.4,4.1-0.8,6.4-0.8c2.2,0,4.1,0.1,5.8,0.4c1.7,0.2,3.2,0.6,4.6,1.2v8.7c-0.6-0.4-1.5-0.9-2.3-1.3c-0.9-0.3-1.7-0.6-2.6-0.9
		c-0.9-0.2-1.7-0.4-2.6-0.5s-1.7-0.2-2.5-0.2c-1.1,0-2,0.1-2.9,0.3c-0.9,0.2-1.6,0.5-2.3,0.9c-0.6,0.3-1.1,0.9-1.4,1.3
		c-0.3,0.4-0.5,1.1-0.5,1.7c0,0.8,0.2,1.3,0.5,1.9c0.3,0.5,0.9,1.1,1.6,1.6s1.5,1,2.5,1.5c1,0.4,2,1,3.3,1.5
		c1.6,0.8,3.2,1.4,4.5,2.3c1.3,0.9,2.5,1.7,3.4,2.7c1,1,1.7,2.2,2.2,3.4c0.5,1.3,0.8,2.8,0.8,4.4c0,2.4-0.4,4.3-1.3,5.9
		c-0.9,1.6-2,2.9-3.7,3.9c-1.6,1-3.2,1.7-5.3,2.2c-2,0.4-4.2,0.6-6.4,0.6c-2.3,0-4.5-0.2-6.6-0.5S283.5,113.8,282,112.9z"/>
	<path class="st1" d="M347.5,113c-3,1.5-7,2.3-12,2.3c-6.5,0-11.5-1.9-15.2-5.7c-3.7-3.8-5.5-8.8-5.5-15.1c0-6.7,2-12.2,6.2-16.3
		c4.1-4.2,9.5-6.2,16.2-6.2c4.1,0,7.5,0.5,10.3,1.5v9c-2.8-1.7-6-2.5-9.6-2.5c-3.9,0-7.1,1.3-9.5,3.7c-2.4,2.5-3.7,5.8-3.7,10
		c0,4.1,1.2,7.3,3.4,9.7c2.3,2.4,5.4,3.6,9.2,3.6c3.7,0,7-0.9,10.1-2.7L347.5,113L347.5,113z"/>
	<path class="st1" d="M391,115.4h-9.5v-17h-17.3v17h-9.5V73.5h9.5v16.7h17.3V73.5h9.5V115.4L391,115.4z"/>
	<path class="st1" d="M418.3,115.3c-6,0-10.9-1.9-14.6-5.8s-5.7-8.9-5.7-15.3c0-6.7,1.9-12,5.7-16c3.9-4.1,8.9-6.1,15.2-6.1
		c5.9,0,10.8,1.9,14.5,5.8c3.7,3.9,5.5,9,5.5,15.5c0,6.6-1.9,11.8-5.7,15.9C429.4,113.2,424.5,115.3,418.3,115.3z M418.6,80.1
		c-3.3,0-5.9,1.3-7.9,3.8c-1.9,2.5-2.9,5.8-2.9,9.9s1,7.4,2.9,9.8c1.9,2.4,4.5,3.7,7.6,3.7c3.2,0,5.8-1.2,7.8-3.6
		c1.9-2.4,2.9-5.6,2.9-9.8c0-4.3-1-7.8-2.8-10.1C424.5,81.2,421.9,80.1,418.6,80.1z"/>
	<path class="st1" d="M470.9,115.4h-25V73.5h9.5v34.2h15.5L470.9,115.4L470.9,115.4z"/>
	<path class="st1" d="M514.6,115.4h-10.2l-3-9.4h-14.9l-2.9,9.4h-10.2l15.2-41.9h11.2L514.6,115.4z M499.2,98.8l-4.5-14.1
		c-0.3-1.1-0.5-2.3-0.6-3.8h-0.2c-0.1,1.2-0.3,2.5-0.8,3.7l-4.5,14.2H499.2z"/>
	<path class="st1" d="M555,115.4h-10.9l-6.5-10.8c-0.5-0.9-1-1.5-1.4-2.2c-0.4-0.6-0.9-1.2-1.4-1.6c-0.5-0.4-1-0.9-1.4-1.1
		c-0.4-0.2-1.1-0.3-1.6-0.3h-2.6v16h-9.5v-42h15c10.1,0,15.2,3.8,15.2,11.4c0,1.5-0.2,2.8-0.6,4.1c-0.4,1.3-1.1,2.4-1.9,3.3
		c-0.9,1-1.8,1.8-3,2.6c-1.2,0.8-2.5,1.3-3.9,1.7v0.1c0.6,0.2,1.2,0.5,1.8,1c0.5,0.4,1.2,1,1.7,1.5c0.5,0.5,1.1,1.2,1.6,1.9
		c0.5,0.8,1,1.3,1.4,1.9L555,115.4z M529.2,80.6v11.6h4.1c2,0,3.7-0.5,4.8-1.7c1.3-1.2,1.8-2.7,1.8-4.4c0-3.7-2.2-5.5-6.6-5.5
		C533.5,80.6,529.2,80.6,529.2,80.6z"/>
	<path class="st1" d="M557,112.9v-9.4c1.7,1.4,3.6,2.5,5.5,3.2c1.9,0.8,4,1.1,6,1.1c1.2,0,2.3-0.1,3.1-0.3c0.9-0.2,1.6-0.5,2.3-0.9
		c0.5-0.3,1.1-0.9,1.3-1.4c0.3-0.5,0.4-1.1,0.4-1.7c0-0.9-0.2-1.5-0.8-2.2c-0.4-0.6-1.1-1.3-1.9-1.8c-0.9-0.5-1.7-1.1-2.9-1.6
		c-1.1-0.5-2.3-1-3.6-1.5c-3.2-1.4-5.7-3-7.3-5c-1.6-1.9-2.4-4.3-2.4-7.1c0-2.2,0.4-4.1,1.3-5.6c0.9-1.5,2-2.9,3.6-3.9
		c1.5-1,3.2-1.7,5.3-2.3c1.9-0.4,4.1-0.8,6.4-0.8c2.2,0,4.1,0.1,5.8,0.4c1.7,0.2,3.2,0.6,4.6,1.2v8.7c-0.8-0.4-1.5-0.9-2.3-1.3
		c-0.9-0.3-1.7-0.6-2.6-0.9c-0.9-0.2-1.7-0.4-2.6-0.5c-0.9-0.1-1.7-0.2-2.5-0.2c-1.1,0-2,0.1-2.9,0.3c-0.9,0.2-1.6,0.5-2.3,0.9
		c-0.6,0.3-1.1,0.9-1.4,1.3c-0.3,0.4-0.5,1.1-0.5,1.7c0,0.8,0.2,1.3,0.5,1.9c0.3,0.5,0.9,1.1,1.6,1.6c0.8,0.5,1.5,1,2.5,1.5
		c1,0.4,2,1,3.3,1.5c1.6,0.8,3.2,1.4,4.5,2.3c1.3,0.9,2.5,1.7,3.4,2.7c1,1,1.7,2.2,2.2,3.4c0.5,1.3,0.8,2.8,0.8,4.4
		c0,2.4-0.4,4.3-1.3,5.9c-0.9,1.6-2,2.9-3.6,3.9c-1.5,1-3.2,1.7-5.3,2.2c-2,0.4-4.1,0.6-6.4,0.6c-2.3,0-4.5-0.2-6.6-0.5
		C560.2,114.3,558.5,113.8,557,112.9z"/>
</g>
<g>
	<path class="st1" d="M139,42.7h-9.5V0.9h9.5V42.7z"/>
	<path class="st1" d="M186.3,42.7h-9.5l-17.2-26.3c-1-1.5-1.7-2.7-2-3.4h-0.3c0.1,1.5,0.2,3.8,0.2,6.8v23h-8.8V0.9h10.1l16.6,25.5
		c0.8,1.2,1.5,2.3,2,3.4h0.1c-0.1-1-0.2-2.9-0.2-5.7V0.9h8.9L186.3,42.7L186.3,42.7z"/>
	<path class="st1" d="M225.2,8.5h-12v34.1h-9.5V8.5H192V0.9h33.3L225.2,8.5L225.2,8.5z"/>
	<path class="st1" d="M265.9,42.7h-10.8l-6.6-10.8c-0.4-0.9-1-1.5-1.4-2.2c-0.4-0.6-0.9-1.2-1.4-1.6c-0.5-0.4-1-0.9-1.4-1.1
		c-0.4-0.2-1.1-0.3-1.6-0.3h-2.6v16h-9.5V0.9h15c10.1,0,15.2,3.8,15.2,11.4c0,1.5-0.2,2.8-0.6,4.1c-0.4,1.3-1.1,2.4-1.9,3.3
		s-1.8,1.8-3,2.6c-1.2,0.8-2.5,1.3-3.9,1.7v0.1c0.6,0.2,1.2,0.5,1.8,1c0.6,0.4,1.2,1,1.7,1.5c0.5,0.5,1.1,1.2,1.5,1.9
		c0.4,0.8,1,1.3,1.4,1.9L265.9,42.7z M240.2,7.9v11.6h4.1c2,0,3.7-0.5,4.8-1.7c1.3-1.2,1.8-2.7,1.8-4.4c0-3.7-2.2-5.5-6.6-5.5
		C244.5,7.9,240.2,7.9,240.2,7.9z"/>
	<path class="st1" d="M295,42.7h-25.1V0.9H294v7.6h-14.8v9.3H293v7.6h-13.7V35H295V42.7z"/>
	<path class="st1" d="M311.2,28.4v14.3h-9.5V0.9h14.8c10.6,0,15.8,4.4,15.8,13.4c0,4.2-1.5,7.6-4.5,10.2c-3,2.6-7.1,3.9-12.2,3.9
		C315.6,28.4,311.2,28.4,311.2,28.4z M311.2,8.1v13h3.7c5.1,0,7.5-2.2,7.5-6.6c0-4.3-2.5-6.5-7.5-6.5H311.2z"/>
	<path class="st1" d="M347.9,42.7h-9.5V0.9h9.5V42.7z"/>
	<path class="st1" d="M357.4,42.7V0.9h14.9c14.9,0,22.3,6.8,22.3,20.5c0,6.6-2,11.7-6,15.6c-4.1,3.9-9.5,5.8-16.3,5.8
		C372.2,42.8,357.4,42.8,357.4,42.7z M366.8,8.5V35h4.6c4.1,0,7.3-1.2,9.6-3.7s3.4-5.8,3.4-10c0-4-1.2-7.1-3.4-9.4s-5.5-3.4-9.7-3.4
		H366.8z"/>
</g>
<rect x="637.7" y="101" width="16" height="16"/>
<g>
	<g>
		<g>
			<path class="st2" d="M171.1,228.7c-13.5-13.7-31.4-20.6-49.3-20.6c-17.9,0-35.8,6.8-49.4,20.4c-13.7,13.8-20.6,31.7-20.6,49.6
				c0,17.9,6.8,35.8,20.4,49.4c13.7,13.7,31.5,20.4,49.4,20.4c17.9,0,35.8-6.8,49.4-20.4c13.7-13.7,20.4-31.5,20.4-49.4
				C191.5,260.2,184.8,242.3,171.1,228.7z M166.2,322.5c-12.3,12.3-28.3,18.5-44.4,18.5c-16.1,0-32.1-6.2-44.4-18.5
				C65,310.2,59,294.2,59,278.1c0-16,6.2-32.1,18.4-44.4c12.3-12.3,28.3-18.5,44.4-18.5c16,0,32.1,6.2,44.4,18.5
				c12.3,12.3,18.4,28.3,18.4,44.4C184.6,294.2,178.6,310.2,166.2,322.5z"/>
			<path class="st2" d="M151.8,270.8L131.4,259l-20.3-11.7c-2-1.1-4.2-1.4-6.2-0.9c-2,0.6-3.8,1.8-4.9,3.8c-0.4,0.6-0.6,1.3-0.9,2
				c-0.1,0.4-0.1,1-0.3,1.5v48.5c0,2.3,1,4.4,2.4,5.8c1.5,1.5,3.5,2.4,5.8,2.4c1.3,0,3.9-1.1,4.7-1.5l20-11.5h0.1l0.1-0.1l20.7-12
				c2-1.1,3.3-3,3.8-5.1c0.1-0.4,0.1-1,0.1-1.6C156.6,273.9,151.8,270.8,151.8,270.8z M149,279.1l-20.4,11.8c-0.1,0-0.3,0.1-0.3,0.1
				l-20,11.5c-0.2,0.1-0.9,0.4-1.1,0.4c-0.3,0-0.6-0.1-0.8-0.3c-0.1-0.1-0.3-0.6-0.3-0.8v-47.8c0-0.1,0-0.1,0-0.3c0,0,0-0.1,0.2-0.1
				c0,0,0.1-0.1,0.1-0.3c0.1-0.1,0.4-0.3,0.6-0.4h0.7c0.1,0.1,0.3,0.1,0.4,0.3l20,11.6c0.1,0.1,0.3,0.1,0.3,0.1h0.1l20.4,11.8
				c0.3,0.1,0.8,0.6,0.8,1C149.7,278.4,149.3,279,149,279.1z"/>
		</g>
	</g>
	<g>
	</g>
	<g>
	</g>
	<g>
	</g>
	<g>
	</g>
	<g>
	</g>
	<g>
	</g>
	<g>
	</g>
	<g>
	</g>
	<g>
	</g>
	<g>
	</g>
	<g>
	</g>
	<g>
	</g>
	<g>
	</g>
	<g>
	</g>
	<g>
	</g>
</g>
<path class="st3" d="M47.8,74.6L47.8,74.6z"/>
<g>
	<path class="st1" d="M14.1,51.2v0.1c0,1.2-1,2.2-2.2,2.2c-1.2,0-2.2-1-2.2-2.2v-0.1c0-1.2,1-2.2,2.2-2.2C13.1,49,14.1,50,14.1,51.2
		z"/>
	<path class="st1" d="M19,32.8c-2.2,3.8-3.6,7.8-4.4,12.1c-0.2,1.1-1.1,1.9-2.2,1.9c-0.1,0-0.3,0-0.4,0c-1.2-0.2-2-1.4-1.8-2.6
		c0.8-4.8,2.5-9.4,4.9-13.6c0.6-1.1,2-1.4,3.1-0.8C19.3,30.4,19.7,31.7,19,32.8z"/>
	<path class="st1" d="M70.9,44l-12.7-7.4c-0.1-0.1-0.3-0.2-0.4-0.2L45,29.1c-1.4-0.9-3-1.4-4.7-1.4c-4.7,0-8.5,3.8-8.5,8.5v30.4
		c0,0.1,0,0.2,0,0.3c0,1.4,0.4,2.8,1.1,4c1.5,2.6,4.3,4.3,7.4,4.3c1.5,0,3-0.4,4.3-1.1l13.1-7.6c0.1,0,0.1-0.1,0.2-0.1l12.8-7.4
		c1.3-0.7,2.5-1.8,3.2-3.2C76.3,51.6,74.9,46.3,70.9,44z M70.1,53.4c-0.4,0.6-0.9,1.2-1.5,1.5l0,0l-13,7.5c-0.1,0-0.1,0.1-0.2,0.1
		l-12.9,7.5c-0.6,0.4-1.3,0.5-2,0.5c-1.5,0-2.8-0.8-3.5-2c-0.3-0.6-0.5-1.3-0.5-2c0-0.1,0-0.2,0-0.2V36.2c0-2.2,1.8-4.1,4.1-4.1
		c0.8,0,1.6,0.3,2.3,0.7c0,0,0.1,0.1,0.1,0.1l12.8,7.4c0.1,0,0.1,0.1,0.2,0.1c0,0,0.1,0,0.1,0.1l12.8,7.4c0.9,0.5,1.6,1.4,1.9,2.5
		C70.8,51.4,70.7,52.5,70.1,53.4z"/>
	<path class="st1" d="M89.9,43.5c-0.2,0-0.4,0.1-0.6,0.1c-1,0-1.9-0.7-2.2-1.7l0-0.1c-0.3-1.2,0.4-2.4,1.6-2.7
		c1.2-0.3,2.4,0.4,2.7,1.6l0,0.1C91.8,41.9,91,43.2,89.9,43.5z"/>
	<path class="st1" d="M87.3,72.2c-0.4,0.7-1.2,1.1-1.9,1.1c-0.4,0-0.8-0.1-1.1-0.3c-1.1-0.6-1.4-2-0.8-3c3.8-6.6,5.5-14.2,4.8-21.8
		c-0.1-1.2,0.8-2.3,2-2.4s2.3,0.8,2.4,2C93.4,56.3,91.5,64.8,87.3,72.2z"/>
	<path class="st1" d="M83.6,21.9c0.2,0.3,0.5,0.5,0.7,0.8v0l0,0C84,22.5,83.8,22.2,83.6,21.9z"/>
	<path class="st1" d="M84.3,22.7c0.3,0.4,0.7,0.8,1,1.2c-0.3-0.4-0.6-0.7-0.9-1C84.4,22.8,84.4,22.8,84.3,22.7L84.3,22.7
		C84.3,22.8,84.3,22.8,84.3,22.7z"/>
	<path class="st1" d="M85.5,24.1c0.3,0.3,0.5,0.7,0.8,1v0c0,0,0,0,0,0C86,24.8,85.7,24.5,85.5,24.1z"/>
	<path class="st1" d="M86.9,26c0.3,0.4,0.6,0.8,0.8,1.3c-0.1-0.2-0.3-0.5-0.5-0.7C87.1,26.4,87,26.2,86.9,26
		C86.8,26,86.8,26,86.9,26C86.8,26,86.8,26,86.9,26z"/>
	<path class="st1" d="M89.7,30.5c0.2,0.3,0.3,0.6,0.5,0.9c-0.2-0.4-0.5-0.9-0.7-1.3c-0.3-0.5-0.6-1-0.8-1.5v0c0,0,0,0,0,0
		c0.2,0.3,0.3,0.6,0.5,0.9C89.3,29.9,89.5,30.2,89.7,30.5z"/>
	<path class="st1" d="M92.3,36.3c-0.3-0.7-0.6-1.5-0.9-2.2c0.1,0.3,0.3,0.6,0.4,0.9C92,35.4,92.1,35.8,92.3,36.3z"/>
	<path class="st1" d="M91.4,34.1c-0.1-0.1-0.1-0.3-0.2-0.4C91.3,33.8,91.4,34,91.4,34.1z"/>
	<path class="st1" d="M90.2,31.4L90.2,31.4L90.2,31.4c0.3,0.6,0.6,1.3,0.9,1.9c0.1,0.1,0.1,0.2,0.2,0.4
		C90.9,32.9,90.5,32.2,90.2,31.4z"/>
	<path class="st1" d="M92.9,38.1c0.1,0.4,0.2,0.7,0.3,1.1c-0.1-0.2-0.1-0.4-0.2-0.7c0-0.1,0-0.1-0.1-0.2c-0.1-0.3-0.2-0.6-0.3-0.9
		c-0.1-0.4-0.3-0.7-0.4-1.1c0.2,0.5,0.4,1,0.5,1.5c0,0,0,0.1,0,0.1C92.9,37.9,92.9,38,92.9,38.1C92.9,38,92.9,38.1,92.9,38.1
		C92.9,38.1,92.9,38.1,92.9,38.1z"/>
	<path class="st1" d="M93.4,39.9c0,0.1,0.1,0.3,0.1,0.4c-0.1-0.3-0.2-0.6-0.3-1c0,0,0-0.1,0-0.1C93.3,39.4,93.4,39.6,93.4,39.9z"/>
	<path class="st1" d="M93.8,41.4c-0.1-0.3-0.2-0.7-0.3-1c0,0,0-0.1,0-0.1c0.1,0.3,0.2,0.5,0.2,0.8c0.1,0.3,0.1,0.6,0.2,0.9
		c0.1,0.5,0.2,1,0.3,1.6C94.1,42.8,94,42.1,93.8,41.4z"/>
	<path class="st1" d="M94.6,56.7c0-0.1,0-0.3,0-0.4C94.7,56.4,94.6,56.5,94.6,56.7c0,0.1,0,0.2,0,0.4c0,0.1,0,0.1,0,0.2
		c-0.1,0.7-0.2,1.3-0.3,2C94.4,58.4,94.5,57.5,94.6,56.7z"/>
	<path class="st1" d="M94.7,46.3c0.1,1.1,0.2,2.2,0.3,3.3c0-0.9-0.1-1.9-0.2-2.8c0-0.4-0.1-0.7-0.1-1.1c-0.1-0.4-0.1-0.7-0.2-1.1
		c0,0.3,0.1,0.5,0.1,0.8C94.6,45.7,94.6,46,94.7,46.3z"/>
	<path class="st1" d="M94.9,52.6c0-0.1,0-0.2,0-0.3c0,0.3,0,0.7,0,1c0,0.2,0,0.4,0,0.6c0,0.1,0,0.3,0,0.4c0-0.1,0-0.2,0-0.3v-0.1
		c0-0.1,0-0.2,0-0.3C94.9,53.3,94.9,53,94.9,52.6z"/>
	<path class="st1" d="M95,51.3c0,0.3,0,0.7,0,1C94.9,52,94.9,51.6,95,51.3c0-0.5,0-1,0-1.5v-0.2C94.9,50.2,95,50.7,95,51.3z"/>
	<line class="st4" x1="20" y1="81.8" x2="82.4" y2="81.8"/>
	<path class="st1" d="M105.2,68.4h-6.5c1.9-5.4,3-11.2,3-17.1c0-27.8-22.5-50.4-50.4-50.4C23.4,0.9,0.9,23.4,0.9,51.3
		c0,11.2,3.6,21.8,10.3,30.5H4.7c-1.9,0-3.4,1.5-3.4,3.4c0,1.8,1.5,3.3,3.3,3.4v20.1c-1.8,0-3.3,1.5-3.3,3.3c0,1.9,1.5,3.4,3.4,3.4
		h100.5c5.5,0,10-4.5,10-10V78.4C115.3,72.9,110.8,68.4,105.2,68.4z M7.6,51.3c0-24.1,19.6-43.7,43.7-43.7c12,0,23,4.9,30.9,12.8
		c0.5,0.5,1,1,1.5,1.5c0.1,0.1,0.2,0.3,0.3,0.4c0.1,0.1,0.2,0.3,0.3,0.4h0v0c0,0,0,0,0,0c0,0,0,0,0,0.1l0,0c0,0,0,0,0,0
		c0.1,0.1,0.2,0.3,0.3,0.4c0.2,0.2,0.4,0.4,0.5,0.7c0,0,0,0.1,0.1,0.1c0,0,0.1,0.1,0.1,0.1c0.3,0.3,0.5,0.7,0.8,1h0v0
		c0,0,0.1,0.1,0.1,0.1c0.1,0.2,0.3,0.4,0.4,0.6c0,0,0,0,0,0c0,0,0,0.1,0.1,0.1h0c0.1,0.2,0.3,0.4,0.4,0.6c0.2,0.2,0.3,0.4,0.5,0.7
		c0.3,0.5,0.6,0.9,0.9,1.4v0h0c0.2,0.3,0.3,0.6,0.5,0.9c0.1,0.2,0.2,0.3,0.3,0.5c0,0,0,0.1,0.1,0.1c0,0,0,0.1,0.1,0.1c0,0,0,0,0,0
		c0,0.1,0.1,0.1,0.1,0.2c0.2,0.3,0.3,0.6,0.5,0.9v0h0c0.2,0.4,0.4,0.7,0.6,1.1c0.1,0.3,0.3,0.5,0.4,0.8c0.3,0.5,0.5,1.1,0.7,1.7
		c0.2,0.4,0.3,0.8,0.5,1.3c0,0,0,0,0,0c0.1,0.4,0.3,0.7,0.4,1.1c0,0.1,0.1,0.3,0.1,0.4c0,0,0,0.1,0,0.1c0,0,0,0.1,0,0.2
		c0,0,0,0,0,0.1c0,0,0,0,0,0c0,0.1,0,0.1,0.1,0.2c0,0.1,0,0.1,0.1,0.2c0.1,0.2,0.1,0.4,0.2,0.7c0,0,0,0.1,0,0.1
		c0,0.2,0.1,0.4,0.1,0.5c0,0.1,0.1,0.3,0.1,0.4c0,0,0,0.1,0,0.1c0.1,0.2,0.1,0.5,0.2,0.7c0,0.1,0,0.2,0.1,0.3c0,0.2,0.1,0.4,0.1,0.6
		c0.1,0.5,0.2,1,0.3,1.6c0.1,0.4,0.1,0.7,0.2,1.1c0,0.3,0.1,0.5,0.1,0.8c0,0.1,0,0.2,0,0.3c0,0.2,0,0.4,0.1,0.5c0,0.2,0,0.4,0.1,0.6
		c0,0.4,0.1,0.9,0.1,1.4c0,0.5,0.1,0.9,0.1,1.4v0.2c0,0.5,0,1,0,1.5v0.5c0,0.2,0,0.3,0,0.5c0,0.1,0,0.2,0,0.3c0,0.2,0,0.5,0,0.7
		c0,0.1,0,0.2,0,0.3c0,0.1,0,0.2,0,0.3c0,0,0,0,0,0V54c0,0.1,0,0.2,0,0.3c0,0.7-0.1,1.3-0.2,2c0,0.1,0,0.3,0,0.4v0
		c0,0.1,0,0.2,0,0.3c0,0.1,0,0.1,0,0.2c0,0.2-0.1,0.5-0.1,0.7c-0.1,0.4-0.1,0.9-0.2,1.3c-0.2,0.9-0.3,1.7-0.5,2.6
		c-0.2,0.7-0.3,1.4-0.5,2c-2,6.7-5.6,12.8-10.6,18H20C12,73.6,7.6,62.8,7.6,51.3z M31.5,108.6H11.4V88.5h20.1V108.6z M58.2,108.6
		h-20V88.5h20V108.6z M85.1,108.6H64.9V88.5h20.2V108.6z M108.6,105.3c0,1.8-1.5,3.3-3.4,3.3H91.8V88.5c14.6,0,14.7,0.2,16.8-0.6
		V105.3z M105.2,81.8H91.4c1.6-2.1,3.1-4.4,4.3-6.7h9.5c1.8,0,3.4,1.5,3.4,3.4C108.6,80.3,107.1,81.8,105.2,81.8z"/>
</g>
<path class="st3" d="M23.4,74.6L23.4,74.6z"/>
<path class="st1" d="M99.7,74.6"/>
<path class="st1" d="M99.7,74.6"/>
<g>
	<g>
		<g>
			<path class="st1" d="M19,32.8c-2.2,3.8-3.6,7.8-4.4,12.1c-0.2,1.1-1.1,1.9-2.2,1.9c-0.1,0-0.3,0-0.4,0c-1.2-0.2-2-1.4-1.8-2.6
				c0.8-4.8,2.5-9.4,4.9-13.6c0.6-1.1,2-1.4,3.1-0.8C19.3,30.4,19.7,31.7,19,32.8z"/>
		</g>
	</g>
	<g>
		<g>
			<path class="st1" d="M87.3,72.2c-0.4,0.7-1.2,1.1-1.9,1.1c-0.4,0-0.8-0.1-1.1-0.3c-1.1-0.6-1.4-2-0.8-3
				c3.8-6.6,5.5-14.2,4.8-21.8c-0.1-1.2,0.8-2.3,2-2.4s2.3,0.8,2.4,2C93.4,56.3,91.5,64.8,87.3,72.2z"/>
		</g>
	</g>
	<g>
		<g>
			<path class="st1" d="M14.1,51.2v0.1c0,1.2-1,2.2-2.2,2.2c-1.2,0-2.2-1-2.2-2.2v-0.1c0-1.2,1-2.2,2.2-2.2
				C13.1,49,14.1,50,14.1,51.2z"/>
		</g>
	</g>
	<g>
		<g>
			<path class="st1" d="M89.9,43.5c-0.2,0-0.4,0.1-0.6,0.1c-1,0-1.9-0.7-2.2-1.7l0-0.1c-0.3-1.2,0.4-2.4,1.6-2.7
				c1.2-0.3,2.4,0.4,2.7,1.6l0,0.1C91.8,41.9,91,43.2,89.9,43.5z"/>
		</g>
	</g>
	<g>
		<g>
			<path class="st1" d="M70.9,44l-12.7-7.4c-0.1-0.1-0.3-0.2-0.4-0.2L45,29.1c-1.4-0.9-3-1.4-4.7-1.4c-4.7,0-8.5,3.8-8.5,8.5v30.4
				c0,0.1,0,0.2,0,0.3c0,1.4,0.4,2.8,1.1,4c1.5,2.6,4.3,4.3,7.4,4.3c1.5,0,3-0.4,4.3-1.1l13.1-7.6c0.1,0,0.1-0.1,0.2-0.1l12.8-7.4
				c1.3-0.7,2.5-1.8,3.2-3.2C76.3,51.6,74.9,46.3,70.9,44z M70.1,53.4c-0.4,0.6-0.9,1.2-1.5,1.5l0,0l-13,7.5c-0.1,0-0.1,0.1-0.2,0.1
				l-12.9,7.5c-0.6,0.4-1.3,0.5-2,0.5c-1.5,0-2.8-0.8-3.5-2c-0.3-0.6-0.5-1.3-0.5-2c0-0.1,0-0.2,0-0.2V36.2c0-2.2,1.8-4.1,4.1-4.1
				c0.8,0,1.6,0.3,2.3,0.7c0,0,0.1,0.1,0.1,0.1l12.8,7.4c0.1,0,0.1,0.1,0.2,0.1c0,0,0.1,0,0.1,0.1l12.8,7.4c0.9,0.5,1.6,1.4,1.9,2.5
				C70.8,51.4,70.7,52.5,70.1,53.4z"/>
		</g>
	</g>
	<g>
	</g>
	<g>
	</g>
	<g>
	</g>
	<g>
	</g>
	<g>
	</g>
	<g>
	</g>
	<g>
	</g>
	<g>
	</g>
	<g>
	</g>
	<g>
	</g>
	<g>
	</g>
	<g>
	</g>
	<g>
	</g>
	<g>
	</g>
	<g>
	</g>
</g>
<g>
</g>
</svg>
