<?xml version="1.0" encoding="utf-8"?>
<!-- Generator: Adobe Illustrator 24.0.2, SVG Export Plug-In . SVG Version: 6.00 Build 0)  -->
<svg version="1.1" id="Layer_1" xmlns="http://www.w3.org/2000/svg" xmlns:xlink="http://www.w3.org/1999/xlink" x="0px" y="0px"
	 viewBox="0 0 115.3 115.7" style="enable-background:new 0 0 115.3 115.7;" xml:space="preserve">
<style type="text/css">
	.st0{fill:#FFFFFF;stroke:#050505;stroke-miterlimit:10;}
	.st1{fill:#1B1B1B;}
	.st2{fill:#01B2BF;}
	.st3{fill:#FFFFFF;}
</style>
<g>
	<g>
		<path class="st0" d="M125.2,219.3h-21.5c6.8-9.1,10.5-20.1,10.5-31.6c0-29.1-23.6-52.7-52.7-52.7c-29.2,0-52.8,23.5-52.8,52.7
			c0,29.1,23.6,52.7,52.7,52.7H125c1.9,0,3.5-1.6,3.5-3.5v-14.1C128.7,220.9,127.2,219.3,125.2,219.3z M15.8,187.7
			c0-25.2,20.5-45.7,45.7-45.7s45.7,20.5,45.7,45.7s-20.5,45.7-45.7,45.7S15.8,212.9,15.8,187.7z M121.7,233.4H87.8
			c3.4-2,6.6-4.3,9.5-7h24.4V233.4L121.7,233.4z"/>
		<path class="st0" d="M95.3,197.9l-19.5-8.1c-1.8-0.7-3.8,0.1-4.6,1.9c-1.1,2.6-3.2,4.7-5.7,5.7c-1.8,0.7-2.6,2.8-1.9,4.6l8.1,19.5
			c0.4,0.9,1,1.6,1.9,1.9c0.8,0.3,1.8,0.4,2.7,0c9.4-3.9,17-11.5,20.9-20.9c0.4-0.9,0.4-1.8,0-2.7C96.8,199,96.2,198.3,95.3,197.9
			L95.3,197.9z M76.7,215.4l-5.4-13.1c1.9-1.3,3.5-2.9,4.7-4.7L89,203C86.3,208.2,81.8,212.5,76.7,215.4L76.7,215.4z"/>
		<path class="st0" d="M57.3,197.5c-2.6-1.1-4.7-3.2-5.7-5.7c-0.7-1.8-2.8-2.6-4.6-1.9L27.6,198c-0.9,0.4-1.5,1-1.9,1.9
			c-0.4,0.9-0.4,1.8,0,2.7c3.9,9.4,11.5,17,20.9,20.9c0.9,0.4,1.8,0.4,2.7,0c0.9-0.4,1.5-1,1.9-1.9l8.1-19.5
			C60,200.3,59.1,198.2,57.3,197.5L57.3,197.5z M46.1,215.4c-5.2-2.9-9.5-7.2-12.4-12.4l13.1-5.5c1.3,1.9,2.9,3.5,4.7,4.7
			L46.1,215.4z"/>
		<path class="st0" d="M27.6,177.5l19.5,8.1c1.8,0.8,3.8-0.1,4.6-1.9c1.1-2.6,3.2-4.7,5.7-5.7c1.8-0.7,2.6-2.8,1.9-4.6l-8.1-19.5
			c-0.4-0.9-1-1.5-1.9-1.9c-0.9-0.4-1.8-0.4-2.7,0c-9.4,3.9-17,11.5-20.9,20.9c-0.4,0.9-0.4,1.8,0,2.7
			C26.1,176.5,26.8,177.1,27.6,177.5L27.6,177.5z M46.1,160l5.4,13.1c-1.9,1.3-3.5,2.9-4.7,4.7l-13.1-5.4
			C36.6,167.2,40.9,162.9,46.1,160z"/>
		<circle class="st0" cx="61.4" cy="187.7" r="3.5"/>
		<path class="st0" d="M65.4,178c2.6,1.1,4.7,3.2,5.7,5.7c0.7,1.8,2.8,2.7,4.6,1.9l19.5-8.1c0.9-0.4,1.6-1,1.9-1.9
			c0.4-0.9,0.4-1.8,0-2.7c-3.9-9.4-11.5-17-20.9-20.9c-0.9-0.4-1.8-0.4-2.7,0c-0.9,0.4-1.5,1-1.9,1.9l-8.1,19.5
			C62.8,175.2,63.6,177.2,65.4,178L65.4,178z M76.7,160c5.2,2.9,9.5,7.2,12.4,12.4L76,177.8c-1.3-1.9-2.9-3.5-4.7-4.7L76.7,160z"/>
	</g>
</g>
<rect x="637.7" y="101" width="16" height="16"/>
<g>
	<g>
		<g>
			<path class="st1" d="M171.1,228.7c-13.5-13.7-31.4-20.6-49.3-20.6c-17.9,0-35.8,6.8-49.4,20.4c-13.7,13.8-20.6,31.7-20.6,49.6
				c0,17.9,6.8,35.8,20.4,49.4c13.7,13.7,31.5,20.4,49.4,20.4c17.9,0,35.8-6.8,49.4-20.4c13.7-13.7,20.4-31.5,20.4-49.4
				C191.5,260.2,184.8,242.3,171.1,228.7z M166.2,322.5c-12.3,12.3-28.3,18.5-44.4,18.5c-16.1,0-32.1-6.2-44.4-18.5
				C65,310.2,59,294.2,59,278.1c0-16,6.2-32.1,18.4-44.4c12.3-12.3,28.3-18.5,44.4-18.5c16,0,32.1,6.2,44.4,18.5
				c12.3,12.3,18.4,28.3,18.4,44.4C184.6,294.2,178.6,310.2,166.2,322.5z"/>
			<path class="st1" d="M151.8,270.8L131.4,259l-20.3-11.7c-2-1.1-4.2-1.4-6.2-0.9c-2,0.6-3.8,1.8-4.9,3.8c-0.4,0.6-0.6,1.3-0.9,2
				c-0.1,0.4-0.1,1-0.3,1.5v48.5c0,2.3,1,4.4,2.4,5.8c1.5,1.5,3.5,2.4,5.8,2.4c1.3,0,3.9-1.1,4.7-1.5l20-11.5h0.1l0.1-0.1l20.7-12
				c2-1.1,3.3-3,3.8-5.1c0.1-0.4,0.1-1,0.1-1.6C156.6,273.9,151.8,270.8,151.8,270.8z M149,279.1l-20.4,11.8c-0.1,0-0.3,0.1-0.3,0.1
				l-20,11.5c-0.2,0.1-0.9,0.4-1.1,0.4c-0.3,0-0.6-0.1-0.8-0.3c-0.1-0.1-0.3-0.6-0.3-0.8v-47.8c0-0.1,0-0.1,0-0.3c0,0,0-0.1,0.2-0.1
				c0,0,0.1-0.1,0.1-0.3c0.1-0.1,0.4-0.3,0.6-0.4h0.7c0.1,0.1,0.3,0.1,0.4,0.3l20,11.6c0.1,0.1,0.3,0.1,0.3,0.1h0.1l20.4,11.8
				c0.3,0.1,0.8,0.6,0.8,1C149.7,278.4,149.3,279,149,279.1z"/>
		</g>
	</g>
</g>
<g>
</g>
<g>
	<path class="st2" d="M15.2,50.9V51c0,1.2-1,2.1-2.1,2.1c-1.2,0-2.1-1-2.1-2.1v-0.1c0-1.2,1-2.1,2.1-2.1
		C14.3,48.8,15.2,49.7,15.2,50.9z"/>
	<path class="st2" d="M20,33.4c-2.1,3.6-3.5,7.5-4.2,11.5c-0.2,1-1.1,1.8-2.1,1.8c-0.1,0-0.2,0-0.4,0c-1.2-0.2-1.9-1.3-1.7-2.5
		c0.8-4.6,2.4-8.9,4.7-12.9c0.6-1,1.9-1.4,2.9-0.8C20.2,31,20.5,32.3,20,33.4z"/>
	<path class="st2" d="M69.3,44l-12.1-7c-0.1-0.1-0.2-0.2-0.4-0.2l-12.1-7c-1.3-0.9-2.9-1.3-4.5-1.3c-4.5,0-8.1,3.6-8.1,8.1v28.9
		c0,0.1,0,0.2,0,0.3c0,1.3,0.4,2.6,1.1,3.8c1.4,2.5,4.1,4.1,7,4.1c1.4,0,2.8-0.4,4.1-1.1l12.5-7.2c0.1,0,0.1-0.1,0.2-0.1l12.2-7.1
		c1.3-0.7,2.3-1.8,3.1-3C74.5,51.2,73.2,46.2,69.3,44z M68.6,53c-0.4,0.6-0.9,1.1-1.5,1.4l0,0l-12.4,7.2c-0.1,0-0.1,0.1-0.2,0.1
		l-12.3,7.1c-0.6,0.3-1.3,0.5-1.9,0.5c-1.4,0-2.7-0.7-3.4-1.9c-0.3-0.6-0.5-1.3-0.5-1.9c0-0.1,0-0.2,0-0.2V36.6
		c0-2.1,1.7-3.9,3.9-3.9c0.8,0,1.5,0.2,2.2,0.7c0,0,0.1,0.1,0.1,0.1l12.2,7c0.1,0,0.1,0.1,0.2,0.1c0,0,0.1,0,0.1,0.1l12.2,7
		c0.9,0.5,1.5,1.3,1.8,2.3C69.3,51,69.1,52.1,68.6,53z"/>
	<path class="st2" d="M87.4,43.5c-0.2,0-0.4,0.1-0.6,0.1c-0.9,0-1.8-0.6-2.1-1.6l0-0.1c-0.3-1.1,0.4-2.3,1.5-2.6
		c1.1-0.3,2.3,0.4,2.6,1.5l0,0.1C89.2,42.1,88.6,43.2,87.4,43.5z"/>
	<path class="st2" d="M84.9,70.9c-0.4,0.7-1.1,1.1-1.8,1.1c-0.4,0-0.7-0.1-1.1-0.3c-1-0.6-1.4-1.9-0.8-2.9
		c3.6-6.3,5.2-13.5,4.6-20.8c-0.1-1.2,0.8-2.2,1.9-2.3c1.2-0.1,2.2,0.8,2.3,1.9C90.8,55.7,89,63.8,84.9,70.9z"/>
	<path class="st2" d="M83.1,21.7c0.2,0.3,0.5,0.5,0.7,0.8v0l0,0C83.6,22.2,83.4,22,83.1,21.7z"/>
	<path class="st2" d="M83.9,22.5c0.3,0.4,0.7,0.8,1,1.2c-0.3-0.4-0.6-0.7-0.9-1C83.9,22.6,83.9,22.6,83.9,22.5L83.9,22.5
		C83.9,22.6,83.9,22.5,83.9,22.5z"/>
	<path class="st2" d="M85,23.9c0.3,0.3,0.5,0.7,0.8,1v0c0,0,0,0,0,0C85.5,24.6,85.3,24.2,85,23.9z"/>
	<path class="st2" d="M86.4,25.8c0.3,0.4,0.6,0.8,0.8,1.3c-0.1-0.2-0.3-0.5-0.5-0.7C86.7,26.2,86.6,26,86.4,25.8
		C86.4,25.7,86.4,25.7,86.4,25.8C86.4,25.7,86.4,25.7,86.4,25.8z"/>
	<path class="st2" d="M89.2,30.2c0.2,0.3,0.3,0.6,0.5,0.9c-0.2-0.4-0.5-0.9-0.7-1.3c-0.3-0.5-0.6-1-0.8-1.5v0c0,0,0,0,0,0
		c0.2,0.3,0.3,0.6,0.5,0.9C88.9,29.6,89.1,29.9,89.2,30.2z"/>
	<path class="st2" d="M91.8,36c-0.3-0.7-0.6-1.5-0.9-2.2c0.1,0.3,0.3,0.6,0.4,0.9C91.5,35.2,91.7,35.6,91.8,36z"/>
	<path class="st2" d="M91,33.9c-0.1-0.1-0.1-0.3-0.2-0.4C90.9,33.6,90.9,33.7,91,33.9z"/>
	<path class="st2" d="M89.7,31.2L89.7,31.2L89.7,31.2c0.3,0.6,0.6,1.3,0.9,1.9c0.1,0.1,0.1,0.2,0.2,0.4
		C90.5,32.7,90.1,31.9,89.7,31.2z"/>
	<path class="st2" d="M92.5,37.9c0.1,0.4,0.2,0.7,0.3,1.1c-0.1-0.2-0.1-0.4-0.2-0.7c0-0.1,0-0.1-0.1-0.2c-0.1-0.3-0.2-0.6-0.3-0.9
		c-0.1-0.4-0.3-0.7-0.4-1.1c0.2,0.5,0.4,1,0.5,1.5c0,0,0,0.1,0,0.1C92.4,37.7,92.4,37.7,92.5,37.9C92.5,37.8,92.5,37.8,92.5,37.9
		C92.5,37.9,92.5,37.9,92.5,37.9z"/>
	<path class="st2" d="M93,39.6c0,0.1,0.1,0.3,0.1,0.4c-0.1-0.3-0.2-0.6-0.3-1c0,0,0-0.1,0-0.1C92.9,39.2,92.9,39.4,93,39.6z"/>
	<path class="st2" d="M93.4,41.2c-0.1-0.3-0.2-0.7-0.3-1c0,0,0-0.1,0-0.1c0.1,0.3,0.2,0.5,0.2,0.8c0.1,0.3,0.1,0.6,0.2,0.9
		c0.1,0.5,0.2,1,0.3,1.6C93.7,42.6,93.5,41.9,93.4,41.2z"/>
	<path class="st2" d="M94.2,56.4c0-0.1,0-0.3,0-0.4C94.2,56.2,94.2,56.3,94.2,56.4c0,0.1,0,0.2,0,0.4c0,0.1,0,0.1,0,0.2
		c-0.1,0.7-0.2,1.3-0.3,2C93.9,58.2,94.1,57.3,94.2,56.4z"/>
	<path class="st2" d="M94.2,46c0.1,1.1,0.2,2.2,0.3,3.3c0-0.9-0.1-1.9-0.2-2.8c0-0.4-0.1-0.7-0.1-1.1c-0.1-0.4-0.1-0.7-0.2-1.1
		c0,0.3,0.1,0.5,0.1,0.8C94.2,45.5,94.2,45.8,94.2,46z"/>
	<path class="st2" d="M94.5,52.4c0-0.1,0-0.2,0-0.3c0,0.3,0,0.7,0,1c0,0.2,0,0.4,0,0.6c0,0.1,0,0.3,0,0.4c0-0.1,0-0.2,0-0.3v-0.1
		c0-0.1,0-0.2,0-0.3C94.5,53,94.5,52.7,94.5,52.4z"/>
	<path class="st2" d="M94.5,51.1c0,0.3,0,0.7,0,1C94.5,51.7,94.5,51.4,94.5,51.1c0-0.5,0-1,0-1.5v-0.2
		C94.5,49.9,94.5,50.5,94.5,51.1z"/>
	<line class="st2" x1="19.5" y1="81.6" x2="82" y2="81.6"/>
	<path class="st2" d="M104.8,68.1h-6.5c1.9-5.4,3-11.2,3-17.1c0-27.8-22.5-50.4-50.4-50.4C23,0.7,0.4,23.2,0.4,51.1
		c0,11.2,3.6,21.8,10.3,30.5H4.3c-1.9,0-3.4,1.5-3.4,3.4c0,1.8,1.5,3.3,3.3,3.4v20.1c-1.8,0-3.3,1.5-3.3,3.3c0,1.9,1.5,3.4,3.4,3.4
		h100.5c5.5,0,10-4.5,10-10V78.2C114.8,72.7,110.3,68.1,104.8,68.1z M7.1,51.1C7.1,27,26.7,7.4,50.8,7.4c12,0,23,4.9,30.9,12.8
		c0.5,0.5,1,1,1.5,1.5c0.1,0.1,0.2,0.3,0.3,0.4c0.1,0.1,0.2,0.3,0.3,0.4h0v0c0,0,0,0,0,0c0,0,0,0,0,0.1l0,0c0,0,0,0,0,0
		c0.1,0.1,0.2,0.3,0.3,0.4c0.2,0.2,0.4,0.4,0.5,0.7c0,0,0,0.1,0.1,0.1c0,0,0.1,0.1,0.1,0.1c0.3,0.3,0.5,0.7,0.8,1h0v0
		c0,0,0.1,0.1,0.1,0.1c0.1,0.2,0.3,0.4,0.4,0.6c0,0,0,0,0,0c0,0,0,0.1,0.1,0.1h0c0.1,0.2,0.3,0.4,0.4,0.6c0.2,0.2,0.3,0.4,0.5,0.7
		c0.3,0.5,0.6,0.9,0.9,1.4v0h0c0.2,0.3,0.3,0.6,0.5,0.9c0.1,0.2,0.2,0.3,0.3,0.5c0,0,0,0.1,0.1,0.1c0,0,0,0.1,0.1,0.1c0,0,0,0,0,0
		c0,0.1,0.1,0.1,0.1,0.2c0.2,0.3,0.3,0.6,0.5,0.9v0h0c0.2,0.4,0.4,0.8,0.6,1.1c0.1,0.3,0.3,0.5,0.4,0.8c0.3,0.5,0.5,1.1,0.7,1.7
		c0.2,0.4,0.3,0.8,0.5,1.3c0,0,0,0,0,0c0.1,0.4,0.3,0.7,0.4,1.1c0,0.1,0.1,0.3,0.1,0.4c0,0,0,0.1,0,0.1c0,0,0,0.1,0,0.2
		c0,0,0,0,0,0.1c0,0,0,0,0,0c0,0.1,0,0.1,0.1,0.2c0,0.1,0,0.1,0.1,0.2c0.1,0.2,0.1,0.4,0.2,0.7c0,0,0,0.1,0,0.1
		c0,0.2,0.1,0.4,0.1,0.5c0,0.1,0.1,0.3,0.1,0.4c0,0,0,0.1,0,0.1c0.1,0.2,0.1,0.5,0.2,0.7c0,0.1,0,0.2,0.1,0.3c0,0.2,0.1,0.4,0.1,0.6
		c0.1,0.5,0.2,1,0.3,1.6c0.1,0.4,0.1,0.7,0.2,1.1c0,0.3,0.1,0.5,0.1,0.8c0,0.1,0,0.2,0,0.3c0,0.2,0,0.4,0.1,0.5c0,0.2,0,0.4,0.1,0.6
		c0,0.4,0.1,0.9,0.1,1.4c0,0.5,0.1,0.9,0.1,1.4v0.2c0,0.5,0,1,0,1.5v0.5c0,0.2,0,0.3,0,0.5c0,0.1,0,0.2,0,0.3c0,0.2,0,0.5,0,0.7
		c0,0.1,0,0.2,0,0.3c0,0.1,0,0.2,0,0.3c0,0,0,0,0,0v0.1c0,0.1,0,0.2,0,0.3c0,0.7-0.1,1.3-0.2,2c0,0.1,0,0.3,0,0.4v0
		c0,0.1,0,0.2,0,0.3c0,0.1,0,0.1,0,0.2c0,0.2-0.1,0.5-0.1,0.7c-0.1,0.4-0.1,0.9-0.2,1.3c-0.2,0.9-0.3,1.7-0.5,2.6
		c-0.2,0.7-0.3,1.4-0.5,2c-2,6.7-5.6,12.8-10.6,18H19.5C11.5,73.4,7.1,62.6,7.1,51.1z M31,108.4H11V88.3H31V108.4z M57.8,108.4h-20
		V88.3h20V108.4z M84.6,108.4H64.5V88.3h20.2V108.4z M108.2,105c0,1.8-1.5,3.3-3.4,3.3H91.3V88.3c14.6,0,14.7,0.2,16.8-0.6V105z
		 M104.8,81.6H90.9c1.6-2.1,3.1-4.4,4.3-6.7h9.5c1.8,0,3.4,1.5,3.4,3.4C108.2,80.1,106.6,81.6,104.8,81.6z"/>
</g>
<path class="st3" d="M66.6,121.3"/>
<path class="st3" d="M66.6,121.3"/>
</svg>
